<svg xmlns="http://www.w3.org/2000/svg" version="1.0" viewBox="0 0 750.54 115.83">
 <path fill="#ffffff" opacity="0.5" d="m 458.9437,98.5009 c 0,1.0793 -0.88502,2.0506 -1.9751,2.0506 h -37.797 c -1.1009,0 -1.9859,-0.97132 -1.9859,-2.0506 v -27.306 c 0,-1.0793 0.88502,-1.9427 1.9859,-1.9427 h 37.797 c 1.0901,0 1.9751,0.86345 1.9751,1.9427 z m -1.6405,-37.451 h -38.477 c -5.5691,0 -10.113,4.533 -10.113,10.145 v 27.414 c 0,5.5044 4.5438,10.145 10.113,10.145 h 38.477 c 5.5799,0 10.113,-4.641 10.113,-10.145 v -27.414 c 0,-5.6123 -4.533,-10.145 -10.113,-10.145"/>
 <g fill="#ffffff">
  <path fill="#ffffff" d="m 15.9167,20.0409 v 35.293 H 7.0881 V 7.6299 h 7.5442 l 35.757,34.753 V 7.6299 h 7.0693 1.6405 v 47.704 h -6.8966 l -36.286,-35.293"/>
  <path fill="#ffffff" d="m 104.4337,20.0409 v 35.293 H 95.6051 V 7.6299 h 7.5334 l 35.757,34.753 V 7.6299 h 7.0801 1.6405 v 47.704 h -6.8967 l -36.286,-35.293"/>
  <path fill="#ffffff" d="m 287.8737,20.0409 v 35.293 h -8.8286 V 7.6299 h 7.5334 l 35.757,34.753 V 7.6299 h 7.0801 1.6405 v 47.704 h -6.8859 l -36.296,-35.293"/>
  <path fill="#ffffff" d="m 80.1237,7.6209 h 1.6297 v 47.704 H 72.9248 V 7.6209 h 7.1988"/>
  <path fill="#ffffff" d="m 207.7437,7.6209 h 1.6189 v 8.2026 h -21.284 v 39.502 h -9.174 v -39.502 h -21.284 V 7.6209 h 50.122"/>
  <path fill="#ffffff" d="m 264.2937,7.6209 h 1.6513 v 8.2026 h -37.84 v 10.685 h 29.27 v 8.2026 h -29.27 v 12.412 h 37.84 v 8.2026 H 219.363 V 7.6217 h 44.931"/>
  <path fill="#ffffff" d="m 380.1437,47.1309 h -27.112 v -31.299 h 27.112 c 8.4832,0 11.494,8.4184 11.494,15.65 0,7.1234 -3.0112,15.65 -11.494,15.65 z m 14.484,-32.487 c -3.4537,-4.641 -8.5588,-7.0154 -14.732,-7.0154 h -35.379 v 47.704 h 35.379 c 6.1735,0 11.279,-2.4824 14.732,-7.0154 3.2379,-4.2093 4.9539,-10.037 4.9539,-16.837 0,-6.7995 -1.7161,-12.628 -4.9539,-16.837"/>
  <path fill="#ffffff" d="m 458.9437,45.1809 c 0,0.97131 -0.88502,1.9427 -1.9751,1.9427 h -37.797 c -1.1009,0 -1.9859,-0.9714 -1.9859,-1.9427 v -27.414 c 0,-1.0792 0.88502,-1.9427 1.9859,-1.9427 h 37.797 c 1.0901,0 1.9751,0.86346 1.9751,1.9427 z m -1.6405,-37.559 h -38.477 c -5.5691,0 -10.113,4.533 -10.113,10.145 v 27.414 c 0,5.6123 4.5438,10.145 10.113,10.145 h 38.477 c 5.5799,0 10.113,-4.533 10.113,-10.145 v -27.414 c 0,-5.6122 -4.533,-10.145 -10.113,-10.145"/>
  <path fill="#ffffff" d="m 617.5737,88.5709 c 9.1524,3.6695 28.482,6.5836 43.571,6.5836 16.513,0 23.345,-5.6123 23.345,-12.736 0,-6.4757 -6.3463,-10.145 -24.575,-16.837 -24.381,-8.9581 -42.265,-16.081 -42.265,-32.163 0,-16.513 21.521,-26.335 54.321,-26.335 17.614,0 23.658,1.0792 34.839,3.1299 l 0.0864,15.758 c -10.987,-2.0506 -20.722,-5.6123 -35.843,-5.6123 -16.211,0 -23.118,5.1806 -23.118,10.469 0,7.663 10.642,11.333 29.303,18.024 25.978,9.2819 40.43,16.405 40.43,32.055 0,16.189 -18.1,27.846 -58.918,27.846 -16.761,0 -28.321,-1.0793 -41.175,-3.2379 v -16.945"/>
  <path fill="#ffffff" d="m 530.6937,21.0109 h -19.427 v 73.608 h 19.427 c 29.821,0 48.633,-12.844 48.633,-36.696 0,-23.852 -18.812,-36.912 -48.633,-36.912 z m 52.14,80.407 c -9.6057,4.3172 -27.781,7.1233 -43.668,7.1233 h -60.721 V 7.3012 h 60.721 c 15.887,0 34.062,2.8062 43.69,7.1233 23.388,10.577 31.008,27.522 31.008,43.495 0,15.973 -7.555,32.918 -31.03,43.495"/>
  <path fill="#ffffff" d="m 723.7637,93.4309 h -3.8962 v -1.4031 h 9.487 v 1.4031 h -3.9178 v 11.333 h -1.6729 v -11.333"/>
  <path fill="#ffffff" d="m 741.5237,99.1509 c -0.0971,-1.7269 -0.205,-3.8854 -0.205,-5.5044 h -0.0432 c -0.45336,1.511 -0.9714,3.1299 -1.619,4.8568 l -2.2558,6.2598 h -1.252 l -2.0937,-6.152 c -0.60448,-1.8348 -1.1009,-3.4537 -1.4571,-4.9647 h -0.0432 c -0.0324,1.619 -0.12953,3.7775 -0.23747,5.6123 l -0.34533,5.5044 h -1.5758 l 0.89584,-12.736 h 2.1046 l 2.1801,6.152 c 0.52884,1.619 0.94982,3.022 1.2952,4.3172 h 0.0324 c 0.34542,-1.2952 0.79869,-2.6982 1.3707,-4.3172 l 2.2773,-6.152 h 2.1045 l 0.79869,12.736 h -1.6297 l -0.30224,-5.6122"/>
 </g>
</svg>
