<svg xmlns="http://www.w3.org/2000/svg" width="437" height="128" version="1.1">
 <path fill="#ffffff" d="M 32.601563,0.8007805 C 14.601563,0.8007805 0,15.40039 0,33.40039 v 62 C 0,113.40039 14.601563,128 32.601563,128 h 27.798829 c 0.5,0 0.90039,-0.39844 0.90039,-0.89844 V 1.7011715 c 0,-0.5 -0.40039,-0.900391 -0.90039,-0.900391 z m 42.298829,0 c -0.5,0 -0.79883,0.400782 -0.79883,0.800781 V 127.10156 c 0,0.5 0.39844,0.89844 0.89844,0.89844 h 19.60156 c 17.999998,0 32.599608,-14.59961 32.599608,-32.59961 v -62 c 0,-18 -14.59961,-32.5996095 -32.599608,-32.5996095 z M 32.601563,11 h 18.5 v 106.80078 h -18.5 c -6,0 -11.600782,-2.29961 -15.800782,-6.59961 -4.2,-4.2 -6.599609,-9.80078 -6.599609,-15.80078 v -62 c 0,-6 2.299609,-11.598829 6.599609,-15.798829 C 21.000781,13.401562 26.601563,11 32.601563,11 Z M 410.38086,22.341796 c -7.09768,0 -12.83789,5.738258 -12.83789,12.835937 0,7.09768 5.74021,12.835938 12.83789,12.835938 7.09768,0 12.83593,-5.738258 12.83593,-12.835938 -0.15101,-7.097679 -5.88926,-12.835937 -12.83593,-12.835937 z M 156.375,23.095703 V 38.953124 L 144.59375,23.248047 h -4.83008 v 24.011718 h 4.83008 V 31.101561 l 11.93164,16.007813 h 4.68164 V 23.095703 Z m 23.10547,0 v 24.013671 h 5.28711 V 23.095703 Z m 40.01953,0 V 38.953124 L 207.7207,23.248047 h -4.83203 v 24.011718 h 4.83203 V 31.101561 l 11.92969,16.007813 h 4.68164 V 23.095703 Z m 21.89648,0 v 5.136719 h 7.70117 v 18.876952 h 5.13672 V 28.232422 h 7.55078 v -5.136719 z m 93.17578,0 V 38.953124 L 322.79101,23.248047 h -4.83007 v 24.011718 h 4.83007 V 31.251953 l 11.93164,16.007812 h 4.68164 V 47.109374 23.095703 Z m 25.06836,0 v 24.013671 h 9.96485 c 6.79565,0 12.38672,-5.438019 12.38672,-11.931641 0,-6.644635 -5.59107,-12.08203 -12.38672,-12.08203 z m -80.33984,0.152344 v 24.011718 h 18.72656 v -4.53125 H 284.2832 v -5.585938 h 12.68555 V 32.761719 H 284.2832 v -5.134766 h 13.74414 V 23.248047 Z M 31.800781,27 c -6.7,0 -12,5.3 -12,11.999999 0,6.6 5.4,12 12,12 6.6,0 12,-5.4 12,-12 0,-6.599999 -5.4,-11.999999 -12,-11.999999 z m 378.580079,0.777344 c 4.07739,0 7.40039,3.323 7.40039,7.400389 0,4.07739 -3.323,7.400391 -7.40039,7.400391 -4.07739,0 -7.39844,-3.323001 -7.39844,-7.400391 0,-4.077389 3.32105,-7.400389 7.39844,-7.400389 z M 364.625,28.232422 h 5.28515 c 3.77537,0 6.94532,3.169951 6.94532,6.945311 0,3.775362 -3.16995,6.945313 -6.94532,6.945313 H 364.625 Z M 99.201172,57.90039 c 7.099998,0 12.900388,5.80039 12.900388,12.90039 0,7.1 -5.80039,12.90039 -12.900388,12.90039 -7.1,0 -12.90039,-5.80039 -12.90039,-12.90039 0.1,-7.1 5.80039,-12.90039 12.90039,-12.90039 z M 351.0332,58.13477 c -13.28927,0 -24.16211,10.872839 -24.16211,24.16211 0,13.289259 10.87284,24.1621 24.16211,24.1621 8.15478,0 15.55356,-3.92896 20.08399,-10.7246 l -7.39844,-6.341801 c -2.56725,4.2284 -7.25028,7.0957 -12.38477,7.0957 -7.85275,0 -14.3457,-6.33927 -14.3457,-14.04101 0,-7.70173 6.34193,-14.34766 14.3457,-14.34766 5.13449,0 9.81752,2.718241 12.38477,7.097661 l 7.39844,-6.341801 C 366.58676,62.21084 359.18798,58.13477 351.0332,58.13477 Z m -192.84765,0.90429 c -9.81595,0 -20.23243,4.83297 -20.23243,13.591799 0,7.09768 4.97956,10.87151 17.9668,13.13672 9.21188,1.510151 14.19789,2.41737 14.04687,6.34375 -0.15101,2.114201 -1.81305,5.73828 -12.08203,5.73828 -8.30579,0 -14.19306,-3.01844 -16.15625,-4.22656 l -4.23046,7.701171 c 2.26521,1.20812 9.96726,4.83008 19.7832,4.83008 14.34637,0 22.04687,-4.98219 22.04687,-14.4961 0.15102,-6.795651 -3.17044,-11.32736 -20.53711,-14.347651 h -0.30078 c -5.58754,-0.906079 -10.26961,-1.813079 -10.72265,-4.984379 0,-0.453051 7.9e-4,-1.509301 0.75586,-2.566401 1.51015,-1.81217 4.98269,-2.56446 10.11718,-2.56446 5.88957,0 11.77838,2.26383 13.89258,3.16992 l 3.17383,-7.85351 c -2.26521,-0.90609 -9.51772,-3.47266 -17.52148,-3.472659 z m 26.58203,0.30078 12.83593,45.30469 h 10.8711 l 8.45703,-29.898441 8.45508,29.898441 h 10.875 l 12.83593,-45.30469 h -9.81445 l -8.75976,32.92188 -9.66602,-32.92188 h -8.00195 l -9.51563,32.771489 -8.75781,-32.771489 z m 96.79882,0 v 9.666019 h 14.34571 v 35.638671 h 9.8164 V 69.005859 h 14.19727 V 59.33984 Z m -21.29296,0.15039 v 45.30469 h 10.11718 V 59.49023 Z m 121.11328,0 v 45.30469 h 9.36133 V 86.67383 h 21.14257 v 18.12109 h 9.36524 V 59.49023 h -9.36524 V 77.31055 H 390.74805 V 59.49023 Z m 49.38086,39.41797 v 5.73633 h 1.05859 v -4.38086 l 1.50977,4.38086 h 1.05664 l 1.50976,-4.38086 v 4.38086 h 1.0586 V 98.9082 h -1.50977 l -1.50977,4.22657 -1.51171,-4.22657 z m -5.73633,0.150389 v 1.054691 h 1.96094 v 4.68164 h 1.05859 v -4.68164 h 1.81055 v -1.054691 z"/>
</svg>
